<svg xmlns="http://www.w3.org/2000/svg" width="221.099" height="32.764" viewBox="0 0 221.099 32.764">
  <g id="Group_45" data-name="Group 45" transform="translate(-133.924 -256.9)">
    <path id="Path_1" data-name="Path 1" d="M170.514,256.9h-6.553l-.009.02-10.474,26.189h-3.762a9.469,9.469,0,0,1-6.51-2.673,9.828,9.828,0,0,1-2.731-7.252,9.532,9.532,0,0,1,2.7-6.989,9.433,9.433,0,0,1,6.525-2.735l.017.015h7.745l2.811-6.555H149.717a15.7,15.7,0,0,0-11.075,4.7,16.37,16.37,0,0,0,11.075,28.045h8.128l8.772-22.032a.849.849,0,0,1,1.579,0l6.076,15.473H164.153l-2.163,6.555h22.265Z" transform="translate(0 0)" fill="#4aab00"/>
    <g id="Group_3" data-name="Group 3" transform="translate(191.212 262.268)">
      <g id="Group_1" data-name="Group 1" transform="translate(0)">
        <path id="Path_2" data-name="Path 2" d="M283.562,282.8a4.689,4.689,0,0,0,2.07-.422,7.164,7.164,0,0,0,1.814-1.35l1.5,1.607a6.771,6.771,0,0,1-5.313,2.536,6.956,6.956,0,0,1-5.185-2.1,7.894,7.894,0,0,1,.039-10.68,7.112,7.112,0,0,1,5.3-2.143,6.8,6.8,0,0,1,5.354,2.474l-1.479,1.691a6.479,6.479,0,0,0-1.863-1.382,5.031,5.031,0,0,0-2.061-.392,4.78,4.78,0,0,0-3.51,1.412,4.875,4.875,0,0,0-1.42,3.608,5.1,5.1,0,0,0,1.409,3.669A4.469,4.469,0,0,0,283.562,282.8Z" transform="translate(-276.385 -270.25)" fill="#fff"/>
        <path id="Path_3" data-name="Path 3" d="M326.12,275.8q0,3.567-2.977,4.5l3.609,5.237h-2.958l-3.292-4.845h-3.056v4.845h-2.327V271.12h5.126q3.155,0,4.515,1.114A4.348,4.348,0,0,1,326.12,275.8Zm-3.1,2.041a2.633,2.633,0,0,0,.71-2.05,2.247,2.247,0,0,0-.729-1.939,4.684,4.684,0,0,0-2.6-.525h-2.957v5.154h2.9A4.115,4.115,0,0,0,323.025,277.841Z" transform="translate(-299.543 -270.77)" fill="#fff"/>
        <path id="Path_4" data-name="Path 4" d="M360.934,271.12v2.289h-7.354v3.814h6.605v2.165h-6.605v3.854h7.591v2.289h-9.917V271.12Z" transform="translate(-321.146 -270.77)" fill="#fff"/>
        <path id="Path_5" data-name="Path 5" d="M382.867,282.253l-1.38,3.278H379l6.073-14.411h2.484l6.073,14.411h-2.484l-1.381-3.278Zm5.954-2.247-2.5-5.937-2.5,5.938Z" transform="translate(-337.736 -270.77)" fill="#fff"/>
        <path id="Path_6" data-name="Path 6" d="M421.154,273.347v12.184h-2.326V273.347h-4.18V271.12h10.686v2.227Z" transform="translate(-359.048 -270.77)" fill="#fff"/>
        <path id="Path_7" data-name="Path 7" d="M447.935,271.12h2.327v14.411h-2.327Z" transform="translate(-378.949 -270.77)" fill="#fff"/>
        <path id="Path_8" data-name="Path 8" d="M467.209,285.531h-2.6l-5.539-14.411h2.6l4.239,10.762,4.238-10.762h2.6Z" transform="translate(-385.605 -270.77)" fill="#fff"/>
        <path id="Path_9" data-name="Path 9" d="M508.117,271.12v2.289h-7.355v3.814h6.605v2.165h-6.605v3.854h7.591v2.289h-9.918V271.12Z" transform="translate(-409.142 -270.77)" fill="#fff"/>
        <path id="Path_10" data-name="Path 10" d="M543.925,282.253l-1.381,3.278H540.06l6.072-14.411h2.484l6.074,14.411H552.2l-1.38-3.278Zm5.954-2.247-2.5-5.937-2.5,5.938Z" transform="translate(-434.028 -270.77)" fill="#fff"/>
        <path id="Path_11" data-name="Path 11" d="M592.64,275.8q0,3.567-2.977,4.5l3.608,5.237h-2.959l-3.292-4.845h-3.056v4.845h-2.327V271.12h5.126q3.154,0,4.516,1.114A4.348,4.348,0,0,1,592.64,275.8Zm-3.1,2.041a2.634,2.634,0,0,0,.71-2.05,2.247,2.247,0,0,0-.73-1.939,4.685,4.685,0,0,0-2.6-.525h-2.957v5.154h2.9A4.117,4.117,0,0,0,589.545,277.841Z" transform="translate(-458.886 -270.77)" fill="#fff"/>
        <path id="Path_12" data-name="Path 12" d="M627.452,271.12v2.289H620.1v3.814h6.6v2.165h-6.6v3.854h7.591v2.289H617.77V271.12Z" transform="translate(-480.488 -270.77)" fill="#fff"/>
        <path id="Path_13" data-name="Path 13" d="M649.388,282.253l-1.381,3.278h-2.484L651.6,271.12h2.484l6.074,14.411h-2.486l-1.38-3.278Zm5.954-2.247-2.5-5.937-2.5,5.938Z" transform="translate(-497.081 -270.77)" fill="#fff"/>
      </g>
      <g id="Group_2" data-name="Group 2" transform="translate(1.866 18.978)">
        <path id="Path_14" data-name="Path 14" d="M284.416,319.878h.757v1.547a2.316,2.316,0,0,1-1.814.705,2.277,2.277,0,0,1-1.663-.66,2.356,2.356,0,0,1,1.663-4.026,2.331,2.331,0,0,1,1.609.569l-.4.582a1.558,1.558,0,0,0-.529-.314,1.98,1.98,0,0,0-.618-.087,1.583,1.583,0,0,0-1.14.443,1.711,1.711,0,0,0-.013,2.324,1.5,1.5,0,0,0,1.086.437,1.915,1.915,0,0,0,1.067-.278Z" transform="translate(-281.026 -317.444)" fill="#fff"/>
        <path id="Path_15" data-name="Path 15" d="M313.319,319.187a1.314,1.314,0,0,1-.968,1.411l1.173,1.643h-.961l-1.07-1.522H310.5v1.522h-.756v-4.524h1.666a2.4,2.4,0,0,1,1.468.349A1.343,1.343,0,0,1,313.319,319.187Zm-1.006.641a.812.812,0,0,0,.23-.644.7.7,0,0,0-.237-.609,1.574,1.574,0,0,0-.846-.165H310.5v1.619h.942A1.376,1.376,0,0,0,312.314,319.828Z" transform="translate(-298.196 -317.608)" fill="#fff"/>
        <path id="Path_16" data-name="Path 16" d="M336.992,321.213l-.448,1.029h-.807l1.974-4.524h.808l1.974,4.524h-.807l-.449-1.029Zm1.935-.705-.813-1.865-.814,1.865Z" transform="translate(-313.735 -317.608)" fill="#fff"/>
        <path id="Path_17" data-name="Path 17" d="M368.068,318.112a1.505,1.505,0,0,1,.468,1.217,1.451,1.451,0,0,1-.477,1.2,2.326,2.326,0,0,1-1.465.381H365.8v1.327h-.756v-4.524h1.538A2.289,2.289,0,0,1,368.068,318.112Zm-.535,1.868a1.006,1.006,0,0,0,.228-.713.743.743,0,0,0-.288-.664,1.653,1.653,0,0,0-.9-.194H365.8v1.813h.877A1.162,1.162,0,0,0,367.533,319.98Z" transform="translate(-331.258 -317.608)" fill="#fff"/>
        <path id="Path_18" data-name="Path 18" d="M391.881,322.242v-4.524h.756v1.961h2.223v-1.961h.756v4.524h-.756v-1.851h-2.223v1.851Z" transform="translate(-347.303 -317.608)" fill="#fff"/>
        <path id="Path_19" data-name="Path 19" d="M420.2,317.718h.756v4.524H420.2Z" transform="translate(-364.234 -317.608)" fill="#fff"/>
        <path id="Path_20" data-name="Path 20" d="M442.724,321.385a1.57,1.57,0,0,0,.673-.132,2.327,2.327,0,0,0,.59-.424l.487.506a2.234,2.234,0,0,1-1.727.8,2.3,2.3,0,0,1-1.685-.66,2.245,2.245,0,0,1-.67-1.67,2.269,2.269,0,0,1,.683-1.683,2.354,2.354,0,0,1,1.724-.673,2.247,2.247,0,0,1,1.74.776l-.481.531a2.1,2.1,0,0,0-.606-.434,1.677,1.677,0,0,0-.67-.123,1.583,1.583,0,0,0-1.141.443,1.5,1.5,0,0,0-.462,1.133,1.571,1.571,0,0,0,.458,1.152A1.48,1.48,0,0,0,442.724,321.385Z" transform="translate(-376.305 -317.444)" fill="#fff"/>
        <path id="Path_21" data-name="Path 21" d="M492.469,318.309a2.123,2.123,0,0,1,.647,1.647,2.233,2.233,0,0,1-.628,1.67,2.65,2.65,0,0,1-1.923.615h-1.487v-4.524h1.538A2.647,2.647,0,0,1,492.469,318.309Zm-.115,1.667q0-1.554-1.762-1.554h-.757v3.1h.84a1.8,1.8,0,0,0,1.246-.392A1.481,1.481,0,0,0,492.353,319.977Z" transform="translate(-405.414 -317.608)" fill="#fff"/>
        <path id="Path_22" data-name="Path 22" d="M520.622,317.718v.719h-2.391v1.2h2.147v.68h-2.147v1.21H520.7v.718h-3.223v-4.524Z" transform="translate(-422.392 -317.608)" fill="#fff"/>
        <path id="Path_23" data-name="Path 23" d="M544.647,318.149a.985.985,0,0,0-.542.136.457.457,0,0,0-.211.411.48.48,0,0,0,.211.421,3.13,3.13,0,0,0,.9.314,2.467,2.467,0,0,1,1.038.473,1.126,1.126,0,0,1,.349.9,1.193,1.193,0,0,1-.441.961,1.751,1.751,0,0,1-1.16.37,2.706,2.706,0,0,1-1.865-.732l.474-.575a2.122,2.122,0,0,0,1.409.6.953.953,0,0,0,.58-.158.5.5,0,0,0,.215-.421.472.472,0,0,0-.2-.408,2.1,2.1,0,0,0-.695-.266,5.938,5.938,0,0,1-.75-.22,1.7,1.7,0,0,1-.454-.261,1.1,1.1,0,0,1-.4-.933,1.137,1.137,0,0,1,.452-.968,1.8,1.8,0,0,1,1.118-.339,2.677,2.677,0,0,1,.852.142,2.225,2.225,0,0,1,.73.4l-.4.575a1.53,1.53,0,0,0-.539-.3A2.043,2.043,0,0,0,544.647,318.149Z" transform="translate(-437.608 -317.444)" fill="#fff"/>
        <path id="Path_24" data-name="Path 24" d="M569.813,317.718h.755v4.524h-.755Z" transform="translate(-453.683 -317.608)" fill="#fff"/>
        <path id="Path_25" data-name="Path 25" d="M593.393,319.878h.757v1.547a2.315,2.315,0,0,1-1.813.705,2.277,2.277,0,0,1-1.664-.66,2.356,2.356,0,0,1,1.664-4.026,2.328,2.328,0,0,1,1.607.569l-.4.582a1.557,1.557,0,0,0-.529-.314,1.979,1.979,0,0,0-.618-.087,1.583,1.583,0,0,0-1.14.443,1.71,1.71,0,0,0-.013,2.324,1.5,1.5,0,0,0,1.086.437,1.916,1.916,0,0,0,1.067-.278Z" transform="translate(-465.754 -317.444)" fill="#fff"/>
        <path id="Path_26" data-name="Path 26" d="M622.079,317.718h.756v4.524h-.82l-2.539-3.3v3.3h-.756v-4.524h.756l2.6,3.378Z" transform="translate(-482.923 -317.608)" fill="#fff"/>
        <path id="Path_27" data-name="Path 27" d="M651.126,317.718v.719h-2.391v1.2h2.147v.68h-2.147v1.21H651.2v.718H647.98v-4.524Z" transform="translate(-500.416 -317.608)" fill="#fff"/>
        <path id="Path_28" data-name="Path 28" d="M677.914,319.187a1.313,1.313,0,0,1-.967,1.411l1.173,1.643h-.961l-1.07-1.522h-.994v1.522h-.756v-4.524H676a2.4,2.4,0,0,1,1.468.349A1.346,1.346,0,0,1,677.914,319.187Zm-1.005.641a.813.813,0,0,0,.23-.644.7.7,0,0,0-.237-.609,1.577,1.577,0,0,0-.847-.165h-.961v1.619h.943A1.379,1.379,0,0,0,676.909,319.828Z" transform="translate(-516.175 -317.608)" fill="#fff"/>
      </g>
    </g>
  </g>
</svg>
