<svg xmlns="http://www.w3.org/2000/svg" width="1048.812" height="105.556" viewBox="0 0 1048.812 105.556">
  <g id="Group_37" data-name="Group 37" transform="translate(-435.188 -4735.48)">
    <text id="Number_a_people" data-name="Number a people" transform="translate(1231.788 4752.48)" fill="#86c858" font-size="23" font-family="MinionPro-Regular, Minion Pro" letter-spacing="0.01em"><tspan x="-81.086" y="0">Number a people</tspan></text>
    <text id="Choose_a_time" data-name="Choose a time" transform="translate(859.183 4752.48)" fill="#86c858" font-size="23" font-family="MinionPro-Regular, Minion Pro" letter-spacing="0.01em"><tspan x="-67.39" y="0">Choose a time</tspan></text>
    <text id="Choose_a_date" data-name="Choose a date" transform="translate(501.188 4752.48)" fill="#96df5f" font-size="23" font-family="MinionPro-Regular, Minion Pro" letter-spacing="0.01em"><tspan x="-65.745" y="0">Choose a date</tspan></text>
    <path id="Path" d="M0,0H334.641V66.928H0Z" transform="translate(435.344 4772.963)" fill="#f9f9f9"/>
    <rect id="Rectangle_18" data-name="Rectangle 18" width="69" height="67" transform="translate(701 4773)" fill="#4aab00"/>
    <path id="Path-2" data-name="Path" d="M6.843,5.9.942,0,0,.939,6.843,7.783,13.687.94,12.748,0Z" transform="translate(729.682 4802.521)" fill="#f5f5f5"/>
    <rect id="Rectangle_19" data-name="Rectangle 19" width="334.641" height="66.928" transform="translate(792.344 4774)" fill="#f9f9f9"/>
    <rect id="Rectangle_20" data-name="Rectangle 20" width="69" height="67" transform="translate(1058 4774.037)" fill="#4aab00"/>
    <path id="Path-3" data-name="Path" d="M6.843,5.9.942,0,0,.939,6.843,7.783,13.687.94,12.748,0Z" transform="translate(1086.682 4803.558)" fill="#f5f5f5"/>
    <path id="Path-4" data-name="Path" d="M0,0H334.641V66.928H0Z" transform="translate(1149.344 4774)" fill="#f9f9f9"/>
    <rect id="Rectangle_22" data-name="Rectangle 22" width="69" height="67" transform="translate(1415 4774.037)" fill="#4aab00"/>
    <path id="Path-5" data-name="Path" d="M6.843,5.9.942,0,0,.939,6.843,7.783,13.687.94,12.748,0Z" transform="translate(1443.682 4803.558)" fill="#f5f5f5"/>
    <text id="_17_02_2017" data-name="17/02/2017" transform="translate(513.278 4813.606)" fill="#b1b1b1" font-size="23" font-family="MinionPro-Regular, Minion Pro" letter-spacing="0.01em"><tspan x="-52.808" y="0">17/02/2017</tspan></text>
    <text id="_8:00pm" data-name="8:00pm" transform="translate(852.667 4812.721)" fill="#b7b7b7" font-size="23" font-family="MinionPro-Regular, Minion Pro" letter-spacing="0.01em"><tspan x="-35.063" y="0">8:00pm</tspan></text>
    <text id="_2_People" data-name="2 People" transform="translate(1214.009 4814.835)" fill="#b7b7b7" font-size="23" font-family="MinionPro-Regular, Minion Pro" letter-spacing="0.01em"><tspan x="-39.468" y="0">2 People</tspan></text>
  </g>
</svg>
