<svg id="Group_39" data-name="Group 39" xmlns="http://www.w3.org/2000/svg" width="159.34" height="31.882" viewBox="0 0 159.34 31.882">
  <path id="Composite_Path" data-name="Composite Path" d="M0,31.867,0,0,31.87,0l0,31.143v.725L0,31.867Zm31.757-.615v0ZM.724,31.143l30.419,0,0-30.418L.727.724l0,30.419Z" transform="translate(127.47 0.012)" fill="#f9f9f9" fill-rule="evenodd"/>
  <path id="Composite_Path-2" data-name="Composite Path" d="M0,31.867,0,0,31.87,0l0,31.867h0L0,31.867Zm31.2-.616v0ZM.724,31.143l30.419,0,0-30.419L.727.724l0,30.418Z" transform="translate(85.463 0.008)" fill="#f9f9f9" fill-rule="evenodd"/>
  <path id="Composite_Path-3" data-name="Composite Path" d="M0,31.867,0,0,31.87,0l0,31.867h0L0,31.867Zm31.354-.615v0ZM.724,31.143l30.419,0,0-30.419L.727.724l0,30.419Z" transform="translate(42.732 0.004)" fill="#f9f9f9" fill-rule="evenodd"/>
  <path id="Composite_Path-4" data-name="Composite Path" d="M.01,31.61,0,0,31.87,0l0,31.868h0L0,31.868Zm31.507-.358v0ZM.725,31.143l30.418,0,0-30.418L.727.724.736,30.887Z" transform="translate(0)" fill="#f9f9f9" fill-rule="evenodd"/>
  <path id="Path" d="M5.775,4.023H3.808V2.734a.524.524,0,0,1,.548-.6H5.743V.007L3.831,0a2.419,2.419,0,0,0-2.6,2.6V4.022H0v2.2H1.227v6.208H3.808V6.218H5.55Z" transform="translate(13.576 10.238)" fill="#f9f9f9"/>
  <path id="Shape_2" data-name="Shape 2" d="M2.305,12.342A2.306,2.306,0,0,1,0,10.038V8.184A2.307,2.307,0,0,1,2.306,5.879h8.008a2.305,2.305,0,0,1,2.3,2.306v1.853a2.305,2.305,0,0,1-2.3,2.3ZM9.014,8.01a.9.9,0,0,0-.272.677v1.435a1.019,1.019,0,0,0,.246.723.879.879,0,0,0,.677.263.946.946,0,0,0,.715-.246,1.025,1.025,0,0,0,.241-.74V9.958H9.964V10.1a.676.676,0,0,1-.063.364.264.264,0,0,1-.222.084.238.238,0,0,1-.216-.1A.684.684,0,0,1,9.4,10.1V9.5h1.219V8.688a.955.955,0,0,0-.234-.7.9.9,0,0,0-.675-.243A.959.959,0,0,0,9.014,8.01ZM4.267,10.5a.678.678,0,0,0,.114.427.394.394,0,0,0,.332.143.783.783,0,0,0,.372-.1,1.373,1.373,0,0,0,.368-.294v.349h.638V7.827H5.453v2.427a.855.855,0,0,1-.2.173.362.362,0,0,1-.178.066.149.149,0,0,1-.13-.053.258.258,0,0,1-.042-.162V7.827H4.268Zm3.222.495a.753.753,0,0,0,.335.07.524.524,0,0,0,.432-.182.791.791,0,0,0,.15-.519V8.59a.956.956,0,0,0-.158-.6.555.555,0,0,0-.464-.2.624.624,0,0,0-.294.076.935.935,0,0,0-.273.22V6.693H6.571v4.328h.646v-.246A.8.8,0,0,0,7.49,10.993ZM1.782,7.322h.743v3.7h.719v-3.7h.744V6.693H1.782Zm5.585,3.206a.543.543,0,0,1-.15-.114V8.425a.45.45,0,0,1,.131-.1A.31.31,0,0,1,7.483,8.3a.248.248,0,0,1,.2.083.383.383,0,0,1,.066.247v1.65a.351.351,0,0,1-.055.22.2.2,0,0,1-.171.067A.373.373,0,0,1,7.366,10.528ZM9.4,9V8.682A.462.462,0,0,1,9.466,8.4a.253.253,0,0,1,.218-.089A.247.247,0,0,1,9.9,8.4a.472.472,0,0,1,.067.285v.323ZM5.446,4.594a.936.936,0,0,1-.283-.715V2.055a.8.8,0,0,1,.29-.65,1.187,1.187,0,0,1,.779-.242,1.05,1.05,0,0,1,.733.257.847.847,0,0,1,.285.658V3.894a.919.919,0,0,1-.279.708,1.1,1.1,0,0,1-.771.257A1.059,1.059,0,0,1,5.446,4.594Zm.538-2.75a.243.243,0,0,0-.081.185V3.947a.312.312,0,0,0,.076.224.292.292,0,0,0,.219.077.327.327,0,0,0,.232-.078.293.293,0,0,0,.086-.223V2.029a.23.23,0,0,0-.088-.185.347.347,0,0,0-.23-.072A.317.317,0,0,0,5.984,1.844ZM7.958,4.664a.747.747,0,0,1-.125-.471V1.252H8.55v2.7A.291.291,0,0,0,8.6,4.13a.17.17,0,0,0,.146.057.422.422,0,0,0,.2-.075.926.926,0,0,0,.221-.188V1.253h.719V4.771H9.165V4.382a1.516,1.516,0,0,1-.414.328.9.9,0,0,1-.416.112A.458.458,0,0,1,7.958,4.664Zm-4.6.107V2.88L2.392,0h.815l.525,1.908h.052L4.283,0h.823L4.164,2.791v1.98Z" transform="translate(138.182 9.051)" fill="#f9f9f9"/>
  <path id="Path-2" data-name="Path" d="M12.674,1.219a5.156,5.156,0,0,1-1.493.409A2.606,2.606,0,0,0,12.325.19a5.228,5.228,0,0,1-1.651.632A2.6,2.6,0,0,0,6.175,2.6a2.663,2.663,0,0,0,.068.593A7.374,7.374,0,0,1,.884.475a2.6,2.6,0,0,0,.8,3.472A2.59,2.59,0,0,1,.51,3.62v.034A2.6,2.6,0,0,0,2.6,6.2a2.606,2.606,0,0,1-.685.091,2.529,2.529,0,0,1-.488-.047A2.6,2.6,0,0,0,3.849,8.054,5.211,5.211,0,0,1,.622,9.167,5.292,5.292,0,0,1,0,9.13,7.373,7.373,0,0,0,3.986,10.3a7.348,7.348,0,0,0,7.4-7.4q0-.169-.008-.337A5.274,5.274,0,0,0,12.674,1.219Z" transform="translate(53.053 10.586)" fill="#f9f9f9"/>
  <path id="Shape_1" data-name="Shape 1" d="M2.187,11.327A3.024,3.024,0,0,1,.212,10.05,1.621,1.621,0,0,1,0,9.248a2.023,2.023,0,0,1,.2-.864,3.708,3.708,0,0,1,3.4-1.851h.044a1.338,1.338,0,0,1-.183-.677A1.351,1.351,0,0,1,3.514,5.5,2.733,2.733,0,0,1,.734,2.76,2.919,2.919,0,0,1,2.84.194,3.419,3.419,0,0,1,3.961,0h3.4a.27.27,0,0,1,.255.184.265.265,0,0,1-.1.3l-.761.552a.266.266,0,0,1-.157.049H6.327a2.641,2.641,0,0,1,.558,1.7A2.539,2.539,0,0,1,5.823,4.768c-.531.412-.551.525-.551.762a2.272,2.272,0,0,0,.783.839A2.631,2.631,0,0,1,7.356,8.8a2.77,2.77,0,0,1-2.219,2.529,4.942,4.942,0,0,1-1.389.188A6.355,6.355,0,0,1,2.187,11.327ZM1.762,8.884A1.783,1.783,0,0,0,3.74,10.435c1.464,0,2.207-.505,2.207-1.5a1.213,1.213,0,0,0-.035-.289c-.1-.387-.453-.627-.988-.993L4.694,7.5a2.644,2.644,0,0,0-.73-.112H3.932C2.775,7.384,1.762,8.085,1.762,8.884ZM2.814,1.331a1.757,1.757,0,0,0-.325,1.387c.132,1.006.867,1.877,1.6,1.9H4.1A.888.888,0,0,0,4.8,4.3a1.827,1.827,0,0,0,.335-1.419,2.008,2.008,0,0,0-1.6-1.866H3.5A.893.893,0,0,0,2.814,1.331ZM9.8,7.96a.265.265,0,0,1-.267-.266V5.76H7.6a.269.269,0,0,1-.269-.267V4.942A.269.269,0,0,1,7.6,4.676H9.531V2.743A.267.267,0,0,1,9.8,2.476h.551a.268.268,0,0,1,.267.267V4.676h1.932a.268.268,0,0,1,.267.268v.55a.267.267,0,0,1-.267.268H10.616V7.694a.266.266,0,0,1-.267.266Z" transform="translate(96.076 10.186)" fill="#f9f9f9"/>
</svg>
